<svg width="24" height="24" viewBox="0 0 24 24" fill="none" xmlns="http://www.w3.org/2000/svg">
<path d="M17 19H7V17.7619C7 16.941 7.32924 16.1537 7.91529 15.5732C8.50134 14.9928 9.2962 14.6667 10.125 14.6667H13.875C14.7038 14.6667 15.4987 14.9928 16.0847 15.5732C16.6708 16.1537 17 16.941 17 17.7619V19ZM12 13.4286C11.5075 13.4286 11.0199 13.3325 10.5649 13.1458C10.11 12.9592 9.69657 12.6856 9.34835 12.3407C9.00013 11.9958 8.72391 11.5863 8.53545 11.1357C8.347 10.685 8.25 10.2021 8.25 9.71429C8.25 9.22652 8.347 8.74353 8.53545 8.29289C8.72391 7.84225 9.00013 7.43279 9.34835 7.08789C9.69657 6.74299 10.11 6.46939 10.5649 6.28273C11.0199 6.09607 11.5075 6 12 6C12.9946 6 13.9484 6.39133 14.6517 7.08789C15.3549 7.78445 15.75 8.7292 15.75 9.71429C15.75 10.6994 15.3549 11.6441 14.6517 12.3407C13.9484 13.0372 12.9946 13.4286 12 13.4286Z" fill="#CCCCCC"/>
</svg>
