<svg width="23" height="22" viewBox="0 0 23 22" fill="none" xmlns="http://www.w3.org/2000/svg">
<circle cx="11.6269" cy="11" r="7.76431" transform="rotate(-45 11.6269 11)" fill="#3776FF"/>
<path d="M16.3355 10.9117C16.3355 11.1757 16.2515 11.3977 16.0835 11.5777C15.9035 11.7457 15.6815 11.8297 15.4175 11.8297L13.0055 11.8297L13.0055 14.2417C13.0055 14.5057 12.9155 14.7277 12.7355 14.9077C12.5555 15.0757 12.3335 15.1597 12.0695 15.1597C11.8055 15.1597 11.5895 15.0757 11.4215 14.9077C11.2415 14.7277 11.1515 14.5057 11.1515 14.2417L11.1515 11.8297L8.73953 11.8297C8.48753 11.8297 8.27153 11.7397 8.09153 11.5597C7.91153 11.3677 7.82153 11.1517 7.82153 10.9117C7.82153 10.6357 7.91153 10.4137 8.09153 10.2457C8.25953 10.0777 8.47553 9.99367 8.73953 9.99367L11.1515 9.99367L11.1515 7.58167C11.1515 7.32967 11.2415 7.11367 11.4215 6.93367C11.6015 6.74167 11.8235 6.64567 12.0875 6.64567C12.3395 6.64567 12.5555 6.74167 12.7355 6.93367C12.9155 7.11367 13.0055 7.32967 13.0055 7.58167L13.0055 9.99367L15.4175 9.99367C15.6815 9.99367 15.9035 10.0777 16.0835 10.2457C16.2515 10.4137 16.3355 10.6357 16.3355 10.9117Z" fill="white"/>
</svg>
