<svg width="12" height="21" viewBox="0 0 12 21" fill="none" xmlns="http://www.w3.org/2000/svg">
<path d="M6 20.0012C4.44908 20.0388 2.94653 19.4599 1.82179 18.3914C0.697047 17.3229 0.0419018 15.852 0 14.3012V4.13121C0.028834 3.01012 0.500645 1.94611 1.31216 1.17208C2.12368 0.398043 3.20879 -0.0229614 4.33 0.00121403C5.45292 -0.0256472 6.54061 0.39416 7.3543 1.16848C8.16799 1.9428 8.64118 3.00835 8.67 4.13121V14.3112C8.62841 14.9898 8.32954 15.627 7.83432 16.0928C7.33911 16.5585 6.68485 16.8179 6.005 16.8179C5.32515 16.8179 4.6709 16.5585 4.17568 16.0928C3.68047 15.627 3.38159 14.9898 3.34 14.3112V4.92121C3.34 4.656 3.44536 4.40164 3.63289 4.21411C3.82043 4.02657 4.07478 3.92121 4.34 3.92121C4.60522 3.92121 4.85957 4.02657 5.04711 4.21411C5.23464 4.40164 5.34 4.656 5.34 4.92121V14.3112C5.35994 14.4735 5.43857 14.623 5.56106 14.7313C5.68356 14.8397 5.84145 14.8995 6.005 14.8995C6.16855 14.8995 6.32644 14.8397 6.44894 14.7313C6.57143 14.623 6.65006 14.4735 6.67 14.3112V4.13121C6.63891 3.53962 6.37577 2.98416 5.93768 2.58539C5.49958 2.18661 4.9219 1.9767 4.33 2.00121C3.73979 1.9794 3.16467 2.19052 2.72876 2.58901C2.29285 2.98751 2.0311 3.54142 2 4.13121V14.3012C2.04163 15.3216 2.48597 16.284 3.23569 16.9775C3.98541 17.671 4.97942 18.0391 6 18.0012C7.02058 18.0391 8.01459 17.671 8.76431 16.9775C9.51403 16.284 9.95837 15.3216 10 14.3012V4.13121C10 3.866 10.1054 3.61164 10.2929 3.42411C10.4804 3.23657 10.7348 3.13121 11 3.13121C11.2652 3.13121 11.5196 3.23657 11.7071 3.42411C11.8946 3.61164 12 3.866 12 4.13121V14.3012C11.9581 15.852 11.303 17.3229 10.1782 18.3914C9.05347 19.4599 7.55092 20.0388 6 20.0012Z" fill="white"/>
</svg>
