<svg width="24" height="24" viewBox="0 0 24 24" fill="none" xmlns="http://www.w3.org/2000/svg">
<path d="M17.4688 5H8.9375C8.76355 5.00031 8.59681 5.06955 8.4738 5.19255C8.3508 5.31556 8.28156 5.4823 8.28125 5.65625V14.1875C8.28156 14.3615 8.3508 14.5282 8.4738 14.6512C8.59681 14.7742 8.76355 14.8434 8.9375 14.8438H17.4688C17.6427 14.8434 17.8094 14.7742 17.9324 14.6512C18.0555 14.5282 18.1247 14.3615 18.125 14.1875V5.65625C18.1247 5.4823 18.0555 5.31556 17.9324 5.19255C17.8094 5.06955 17.6427 5.00031 17.4688 5ZM17.25 13.9688H9.15625V5.875H17.25V13.9688Z" fill="white"/>
<path d="M13.9688 17.25H5.875V9.15625H7.40625V8.28125H5.65625C5.4823 8.28156 5.31556 8.3508 5.19255 8.4738C5.06955 8.59681 5.00031 8.76355 5 8.9375V17.4688C5.00031 17.6427 5.06955 17.8094 5.19255 17.9324C5.31556 18.0555 5.4823 18.1247 5.65625 18.125H14.1875C14.3615 18.1247 14.5282 18.0555 14.6512 17.9324C14.7742 17.8094 14.8434 17.6427 14.8438 17.4688V15.7187H13.9688V17.25Z" fill="white"/>
</svg>
