<svg width="24" height="24" viewBox="0 0 24 24" fill="none" xmlns="http://www.w3.org/2000/svg">
<path d="M15.0625 8H8.9375C7.89321 8 6.89169 8.42143 6.15327 9.17157C5.41484 9.92172 5 10.9391 5 12C5 13.0609 5.41484 14.0783 6.15327 14.8284C6.89169 15.5786 7.89321 16 8.9375 16H15.0625C16.1068 16 17.1083 15.5786 17.8467 14.8284C18.5852 14.0783 19 13.0609 19 12C19 10.9391 18.5852 9.92172 17.8467 9.17157C17.1083 8.42143 16.1068 8 15.0625 8ZM15.0625 14.3889C14.5974 14.3889 14.1428 14.2488 13.756 13.9863C13.3693 13.7238 13.0679 13.3507 12.8899 12.9142C12.712 12.4777 12.6654 11.9973 12.7561 11.534C12.8469 11.0706 13.0708 10.6449 13.3997 10.3108C13.7286 9.97671 14.1476 9.74919 14.6037 9.65701C15.0599 9.56484 15.5327 9.61214 15.9624 9.79295C16.3921 9.97376 16.7594 10.28 17.0178 10.6728C17.2761 11.0657 17.4141 11.5275 17.4141 12C17.4145 12.3138 17.354 12.6247 17.2359 12.9147C17.1179 13.2047 16.9447 13.4683 16.7263 13.6902C16.5078 13.9121 16.2484 14.088 15.9629 14.2079C15.6774 14.3278 15.3714 14.3893 15.0625 14.3889Z" fill="#CCCCCC"/>
</svg>
