<svg width="24" height="24" viewBox="0 0 24 24" fill="none" xmlns="http://www.w3.org/2000/svg">
<path d="M22.1251 2.25H1.89111C1.59291 2.25053 1.30707 2.36922 1.0962 2.58009C0.885338 2.79095 0.766642 3.07679 0.766113 3.375V21.375C0.766642 21.6732 0.885338 21.959 1.0962 22.1699C1.30707 22.3808 1.59291 22.4995 1.89111 22.5H22.1251C22.4233 22.4995 22.7092 22.3808 22.92 22.1699C23.1309 21.959 23.2496 21.6732 23.2501 21.375V3.375C23.2496 3.07679 23.1309 2.79095 22.92 2.58009C22.7092 2.36922 22.4233 2.25053 22.1251 2.25ZM21.7501 3.75V7.124L2.26611 7.101V3.75H21.7501ZM2.26611 21V8.601L21.7501 8.624V21H2.26611Z" fill="#3776FF"/>
</svg>
