<svg width="16" height="16" viewBox="0 0 16 16" fill="none" xmlns="http://www.w3.org/2000/svg">
<path fill-rule="evenodd" clip-rule="evenodd" d="M13.2782 13.4999C16.3157 10.4623 16.3157 5.53742 13.2782 2.49985C10.2406 -0.537712 5.31574 -0.537712 2.27817 2.49985C-0.759392 5.53742 -0.759392 10.4623 2.27817 13.4999C5.31574 16.5374 10.2406 16.5374 13.2782 13.4999ZM12.2428 8.57869C12.4111 8.39837 12.4952 8.17598 12.4952 7.9115C12.4952 7.63501 12.4111 7.41262 12.2428 7.24432C12.0625 7.07602 11.8401 6.99187 11.5756 6.99187H9.1593V4.57556C9.1593 4.32311 9.06914 4.10672 8.88882 3.9264C8.7085 3.73406 8.49211 3.63789 8.23966 3.63789C7.97519 3.63789 7.75279 3.73406 7.57247 3.9264C7.39215 4.10672 7.30199 4.32311 7.30199 4.57556V6.99187H4.88568C4.62121 6.99187 4.40482 7.07601 4.23652 7.24432C4.0562 7.41262 3.96604 7.63501 3.96604 7.9115C3.96604 8.15193 4.0562 8.36832 4.23652 8.56066C4.41684 8.74098 4.63323 8.83114 4.88568 8.83114H7.30199V11.2475C7.30199 11.5119 7.39215 11.7343 7.57247 11.9146C7.74077 12.0829 7.95716 12.1671 8.22163 12.1671C8.4861 12.1671 8.7085 12.0829 8.88882 11.9146C9.06914 11.7343 9.1593 11.5119 9.1593 11.2475V8.83114H11.5756C11.8401 8.83114 12.0625 8.74699 12.2428 8.57869Z" fill="white"/>
</svg>
