<svg width="88" height="100" viewBox="0 0 88 100" fill="none" xmlns="http://www.w3.org/2000/svg">
<path d="M85 0L81.7767 4.78997L87.5366 5.18643L85 0ZM1.18305 99.4653C1.95344 99.1622 2.71728 98.8555 3.47462 98.5453L3.09556 97.6199C2.34254 97.9284 1.58302 98.2333 0.816947 98.5347L1.18305 99.4653ZM7.96525 96.6315C9.47236 95.9637 10.9523 95.2817 12.4054 94.5863L11.9738 93.6842C10.5294 94.3754 9.05838 95.0534 7.56015 95.7172L7.96525 96.6315ZM16.7974 92.4026C18.2651 91.6448 19.7037 90.8731 21.1139 90.0885L20.6277 89.2147C19.2266 89.9942 17.7971 90.761 16.3386 91.514L16.7974 92.4026ZM25.3512 87.6417C26.7661 86.794 28.1505 85.9331 29.5047 85.0601L28.9629 84.2196C27.6179 85.0867 26.2428 85.9417 24.8372 86.7838L25.3512 87.6417ZM33.5692 82.3424C34.9248 81.4025 36.2478 80.4505 37.5391 79.4876L36.9413 78.6859C35.6592 79.642 34.3455 80.5873 32.9994 81.5206L33.5692 82.3424ZM41.4138 76.4907C42.7033 75.4562 43.9585 74.4111 45.18 73.3567L44.5266 72.5997C43.3141 73.6463 42.0682 74.6837 40.788 75.7106L41.4138 76.4907ZM48.8288 70.0887C50.0396 68.9633 51.2142 67.8293 52.3535 66.6884L51.6458 65.9818C50.5154 67.114 49.3497 68.2393 48.148 69.3562L48.8288 70.0887ZM55.7472 63.1585C56.8703 61.945 57.9552 60.7257 59.003 59.5023L58.2435 58.8518C57.204 60.0655 56.1276 61.2752 55.0133 62.4793L55.7472 63.1585ZM62.114 55.7239C63.1423 54.424 64.1303 53.1218 65.0792 51.8197L64.271 51.2308C63.3298 52.5223 62.3498 53.814 61.3297 55.1035L62.114 55.7239ZM67.8874 47.7994C68.8105 46.4195 69.691 45.0422 70.5302 43.6701L69.6771 43.1483C68.8449 44.5089 67.9718 45.8748 67.0562 47.2433L67.8874 47.7994ZM73 39.439C73.8076 37.9872 74.5699 36.5445 75.2885 35.1144L74.3949 34.6654C73.6825 36.0832 72.9269 37.5134 72.1261 38.9528L73 39.439ZM77.3947 30.6878C78.081 29.161 78.7177 27.653 79.307 26.168L78.3775 25.7991C77.7936 27.2703 77.1628 28.7647 76.4826 30.2779L77.3947 30.6878ZM81.005 21.5843C81.5552 19.9852 82.0493 18.4203 82.4906 16.8955L81.53 16.6175C81.0933 18.1263 80.6042 19.6754 80.0594 21.2589L81.005 21.5843ZM83.7266 12.1581C84.1138 10.4881 84.4338 8.88092 84.6916 7.34591L83.7054 7.18027C83.4511 8.6945 83.1351 10.2816 82.7524 11.9322L83.7266 12.1581Z" fill="#96A4A4"/>
</svg>
