<svg width="13" height="10" viewBox="0 0 13 10" fill="none" xmlns="http://www.w3.org/2000/svg">
<path fill-rule="evenodd" clip-rule="evenodd" d="M11.7811 0.71912C11.8509 0.788788 11.9063 0.871551 11.9442 0.962669C11.982 1.05379 12.0014 1.15147 12.0014 1.25012C12.0014 1.34877 11.982 1.44645 11.9442 1.53757C11.9063 1.62869 11.8509 1.71145 11.7811 1.78112L5.78108 9.28112C5.71142 9.35096 5.62865 9.40638 5.53753 9.44419C5.44642 9.482 5.34873 9.50146 5.25008 9.50146C5.15143 9.50146 5.05375 9.482 4.96263 9.44419C4.87152 9.40638 4.78875 9.35096 4.71908 9.28112L0.750085 5.31062C0.613466 5.16917 0.53787 4.97972 0.539579 4.78307C0.541288 4.58642 0.620164 4.39831 0.759221 4.25926C0.898277 4.1202 1.08639 4.04132 1.28303 4.03961C1.47968 4.03791 1.66913 4.1135 1.81058 4.25012L5.25008 7.68962L10.7191 0.71912C10.7888 0.649275 10.8715 0.59386 10.9626 0.556051C11.0538 0.518241 11.1514 0.498779 11.2501 0.498779C11.3487 0.498779 11.4464 0.518241 11.5375 0.556051C11.6287 0.59386 11.7114 0.649275 11.7811 0.71912Z" fill="#3776FF" stroke="#3776FF" stroke-width="0.5" stroke-linecap="round" stroke-linejoin="round"/>
</svg>
