<svg width="23" height="22" viewBox="0 0 23 22" fill="none" xmlns="http://www.w3.org/2000/svg">
<path d="M11.5583 3C7.26847 3 3.77832 6.49015 3.77832 10.78C3.77832 15.0698 7.26847 18.56 11.5583 18.56C15.8482 18.56 19.3383 15.0698 19.3383 10.78C19.3383 6.49015 15.8482 3 11.5583 3ZM14.3752 12.7508C14.4331 12.8058 14.4794 12.8719 14.5114 12.9451C14.5434 13.0183 14.5604 13.0971 14.5614 13.177C14.5624 13.2569 14.5475 13.3362 14.5174 13.4102C14.4873 13.4842 14.4427 13.5514 14.3862 13.6079C14.3297 13.6643 14.2625 13.7089 14.1885 13.739C14.1145 13.7691 14.0352 13.7841 13.9553 13.7831C13.8755 13.7821 13.7966 13.7651 13.7234 13.7331C13.6502 13.7011 13.5841 13.6548 13.5291 13.5969L11.5583 11.6264L9.58751 13.5969C9.47437 13.7044 9.3237 13.7634 9.16765 13.7614C9.01159 13.7594 8.86249 13.6965 8.75213 13.5862C8.64178 13.4758 8.57889 13.3267 8.5769 13.1707C8.5749 13.0146 8.63394 12.864 8.74144 12.7508L10.7119 10.78L8.74144 8.80919C8.63394 8.69605 8.5749 8.54538 8.5769 8.38933C8.57889 8.23327 8.64178 8.08417 8.75213 7.97381C8.86249 7.86346 9.01159 7.80057 9.16765 7.79858C9.3237 7.79658 9.47437 7.85562 9.58751 7.96312L11.5583 9.93355L13.5291 7.96312C13.6423 7.85562 13.7929 7.79658 13.949 7.79858C14.1051 7.80057 14.2542 7.86346 14.3645 7.97381C14.4749 8.08417 14.5377 8.23327 14.5397 8.38933C14.5417 8.54538 14.4827 8.69605 14.3752 8.80919L12.4048 10.78L14.3752 12.7508Z" fill="#FF5E5B"/>
</svg>
