<svg width="14" height="14" viewBox="0 0 14 14" fill="none" xmlns="http://www.w3.org/2000/svg">
<path d="M12.9744 13.2742C12.601 13.6476 12.1751 13.8363 11.6967 13.8402C11.2193 13.8094 10.8047 13.597 10.4529 13.2033L7.23908 9.60576L3.828 13.0168C3.45464 13.3902 3.02077 13.5699 2.52637 13.556C2.04894 13.5251 1.63434 13.3128 1.28258 12.919C0.930813 12.5253 0.761799 12.0843 0.775535 11.5962C0.790254 11.0731 0.984289 10.6249 1.35764 10.2516L4.76872 6.84051L1.55487 3.24299C1.21909 2.86713 1.05856 2.41769 1.07328 1.89466C1.10497 1.35466 1.29052 0.914952 1.62993 0.575541C2.02025 0.185218 2.45413 0.00549838 2.93156 0.0363825C3.393 0.0493678 3.7996 0.252739 4.15136 0.646496L7.36522 4.24401L10.7763 0.832928C11.1327 0.476546 11.5581 0.305311 12.0525 0.319223C12.5638 0.316166 12.9954 0.511516 13.3472 0.905274C13.683 1.28113 13.835 1.73906 13.8033 2.27906C13.7886 2.80209 13.603 3.2418 13.2467 3.59818L9.83557 7.00926L13.0494 10.6068C13.4012 11.0005 13.5782 11.4504 13.5805 11.9565C13.5667 12.4447 13.3647 12.8839 12.9744 13.2742Z" fill="white"/>
</svg>
