<svg width="14" height="14" viewBox="0 0 14 14" fill="none" xmlns="http://www.w3.org/2000/svg">
<path d="M10.1904 2.9165H5.21387C5.11239 2.91668 5.01513 2.95707 4.94338 3.02883C4.87162 3.10058 4.83123 3.19784 4.83105 3.29932V8.27588C4.83123 8.37735 4.87162 8.47462 4.94338 8.54637C5.01513 8.61812 5.11239 8.65851 5.21387 8.65869H10.1904C10.2919 8.65851 10.3892 8.61812 10.4609 8.54637C10.5327 8.47462 10.5731 8.37735 10.5732 8.27588V3.29932C10.5731 3.19784 10.5327 3.10058 10.4609 3.02883C10.3892 2.95707 10.2919 2.91668 10.1904 2.9165ZM10.0628 8.14827H5.34147V3.42692H10.0628V8.14827Z" fill="white"/>
<path d="M8.14876 10.0623H3.42741V5.34098H4.32064V4.83057H3.2998C3.19833 4.83075 3.10107 4.87114 3.02931 4.94289C2.95756 5.01464 2.91717 5.11191 2.91699 5.21338V10.1899C2.91717 10.2914 2.95756 10.3887 3.02931 10.4604C3.10107 10.5322 3.19833 10.5726 3.2998 10.5728H8.27637C8.37784 10.5726 8.4751 10.5322 8.54686 10.4604C8.61861 10.3887 8.659 10.2914 8.65918 10.1899V9.16911H8.14876V10.0623Z" fill="white"/>
</svg>
