<svg width="100" height="100" viewBox="0 0 100 100" fill="none" xmlns="http://www.w3.org/2000/svg">
<path d="M73.8235 45.8333C73.8235 44.5833 74.2647 43.3333 74.2647 41.6667C74.2647 32.5 66.3235 25 56.6176 25C49.5588 25 43.8235 28.75 40.7353 34.1667C39.8529 33.75 38.0882 33.3333 36.7647 33.3333C30.5882 33.3333 25.7353 37.9167 25.7353 43.75C25.7353 44.5833 25.7353 45.4167 26.1765 45.8333C18.2353 47.0833 12.5 52.9167 12.5 60.4167C12.5 68.3333 19.5588 75 27.9412 75H72.0588C80.4412 75 87.5 68.3333 87.5 60.4167C87.5 52.9167 81.7647 46.6667 73.8235 45.8333Z" fill="url(#paint0_linear)"/>
<path d="M60.8332 52.0035V53.0002C60.8318 55.3363 60.0754 57.6094 58.6766 59.4805C57.2779 61.3516 55.3117 62.7204 53.0715 63.3827C50.8312 64.0451 48.4369 63.9656 46.2455 63.156C44.0542 62.3464 42.1832 60.8501 40.9117 58.8903C39.6402 56.9305 39.0363 54.6122 39.19 52.2812C39.3437 49.9501 40.2468 47.7312 41.7646 45.9553C43.2825 44.1795 45.3337 42.9418 47.6124 42.427C49.8911 41.9122 52.2751 42.1477 54.409 43.0985" stroke="white" stroke-width="2" stroke-linecap="round" stroke-linejoin="round"/>
<path d="M60.8333 44.3335L50 55.1777L46.75 51.9277" stroke="white" stroke-width="2" stroke-linecap="round" stroke-linejoin="round"/>
<defs>
<linearGradient id="paint0_linear" x1="11.8662" y1="31.4061" x2="29.3438" y2="88.4592" gradientUnits="userSpaceOnUse">
<stop stop-color="#4D9CFF"/>
<stop offset="1" stop-color="#1769D4"/>
</linearGradient>
</defs>
</svg>
