<svg width="24" height="24" viewBox="0 0 24 24" fill="none" xmlns="http://www.w3.org/2000/svg">
<path d="M16.45 8.20061H13.7V7.28217C13.6871 6.93009 13.5351 6.5975 13.2774 6.35729C13.0196 6.11709 12.6771 5.98888 12.325 6.00076H10.675C10.3229 5.98888 9.98038 6.11709 9.72264 6.35729C9.46489 6.5975 9.3129 6.93009 9.3 7.28217V8.20061H6.55C6.40413 8.20061 6.26424 8.25855 6.16109 8.36169C6.05795 8.46482 6 8.60471 6 8.75057C6 8.89643 6.05795 9.03631 6.16109 9.13945C6.26424 9.24259 6.40413 9.30053 6.55 9.30053H7.1V15.3501C7.1 15.7877 7.27384 16.2073 7.58327 16.5168C7.89271 16.8262 8.31239 17 8.75 17H14.25C14.6876 17 15.1073 16.8262 15.4167 16.5168C15.7262 16.2073 15.9 15.7877 15.9 15.3501V9.30053H16.45C16.5959 9.30053 16.7358 9.24259 16.8389 9.13945C16.9421 9.03631 17 8.89643 17 8.75057C17 8.60471 16.9421 8.46482 16.8389 8.36169C16.7358 8.25855 16.5959 8.20061 16.45 8.20061ZM10.4 7.28217C10.4 7.19418 10.5155 7.10068 10.675 7.10068H12.325C12.4845 7.10068 12.6 7.19418 12.6 7.28217V8.20061H10.4V7.28217ZM14.8 15.3501C14.8 15.496 14.7421 15.6359 14.6389 15.739C14.5358 15.8421 14.3959 15.9001 14.25 15.9001H8.75C8.60413 15.9001 8.46424 15.8421 8.36109 15.739C8.25795 15.6359 8.2 15.496 8.2 15.3501V9.30053H14.8V15.3501Z" fill="#FF5E5B"/>
</svg>
