<svg width="16" height="16" viewBox="0 0 16 16" fill="none" xmlns="http://www.w3.org/2000/svg">
<path d="M7.93759 9.74988C8.40172 9.74988 8.84684 9.56551 9.17503 9.23732C9.50322 8.90913 9.68759 8.46401 9.68759 7.99988C9.68759 7.94863 9.68525 7.89785 9.68087 7.8477L7.7854 9.74316C7.83556 9.74754 7.88618 9.74988 7.93759 9.74988ZM13.7301 2.58676L13.0626 1.91988C13.0392 1.89646 13.0074 1.8833 12.9742 1.8833C12.9411 1.8833 12.9093 1.89646 12.8859 1.91988L11.1777 3.62848C10.2355 3.14691 9.17624 2.90613 8.00009 2.90613C4.99697 2.90613 2.75634 4.4702 1.27822 7.59832C1.2188 7.72413 1.18799 7.86153 1.18799 8.00066C1.18799 8.1398 1.2188 8.2772 1.27822 8.40301C1.86884 9.64707 2.58004 10.6442 3.41181 11.3944L1.75884 13.0468C1.73542 13.0702 1.72226 13.102 1.72226 13.1351C1.72226 13.1683 1.73542 13.2 1.75884 13.2235L2.42587 13.8905C2.44931 13.9139 2.48109 13.9271 2.51423 13.9271C2.54737 13.9271 2.57915 13.9139 2.60259 13.8905L13.7301 2.76363C13.7417 2.75202 13.7509 2.73824 13.7572 2.72306C13.7635 2.70789 13.7668 2.69162 13.7668 2.6752C13.7668 2.65877 13.7635 2.6425 13.7572 2.62733C13.7509 2.61215 13.7417 2.59837 13.7301 2.58676ZM5.18759 7.99988C5.18755 7.52489 5.31053 7.05799 5.54457 6.64466C5.77861 6.23133 6.11571 5.88566 6.52305 5.64133C6.93038 5.39701 7.39406 5.26236 7.8689 5.25049C8.34374 5.23863 8.81356 5.34996 9.23259 5.57363L8.4729 6.33332C8.16653 6.23522 7.83905 6.22341 7.5264 6.29917C7.21376 6.37494 6.92802 6.53536 6.70054 6.76284C6.47307 6.99031 6.31265 7.27605 6.23688 7.5887C6.16111 7.90134 6.17293 8.22882 6.27103 8.5352L5.51134 9.29488C5.29815 8.89657 5.18693 8.45166 5.18759 7.99988Z" fill="#4C4C4C"/>
<path d="M14.7215 7.59678C14.1715 6.43844 13.5169 5.49391 12.7576 4.76318L10.5054 7.01553C10.6953 7.5118 10.7374 8.05243 10.6266 8.5721C10.5158 9.09177 10.257 9.56825 9.88124 9.94397C9.50552 10.3197 9.02904 10.5786 8.50937 10.6893C7.9897 10.8001 7.44907 10.758 6.95279 10.5682L5.04248 12.4785C5.92873 12.8886 6.91446 13.0937 7.99967 13.0937C11.0028 13.0937 13.2434 11.5296 14.7215 8.40146C14.781 8.27566 14.8118 8.13825 14.8118 7.99912C14.8118 7.85999 14.781 7.72258 14.7215 7.59678Z" fill="#4C4C4C"/>
</svg>
