<svg width="24" height="24" viewBox="0 0 24 24" fill="none" xmlns="http://www.w3.org/2000/svg">
<path d="M17.1875 13.3125H13.125C13.125 13.5326 13.0446 13.723 12.8838 13.8838C12.723 14.0446 12.5326 14.125 12.3125 14.125H10.6875C10.459 14.125 10.2664 14.0446 10.1099 13.8838C9.95329 13.723 9.875 13.5326 9.875 13.3125H5.8125C5.58398 13.3125 5.39144 13.2321 5.23486 13.0713C5.07829 12.9105 5 12.7179 5 12.4937C5 12.2694 5.07829 12.0789 5.23486 11.9224C5.39144 11.7658 5.58398 11.6875 5.8125 11.6875H9.875C9.875 11.459 9.95329 11.2664 10.1099 11.1099C10.2664 10.9533 10.459 10.875 10.6875 10.875H12.3125C12.541 10.875 12.7336 10.9533 12.8901 11.1099C13.0467 11.2664 13.125 11.459 13.125 11.6875H17.1875C17.416 11.6875 17.6086 11.7658 17.7651 11.9224C17.9217 12.0789 18 12.2694 18 12.4937C18 12.7179 17.9217 12.9105 17.7651 13.0713C17.6086 13.2321 17.416 13.3125 17.1875 13.3125ZM12.3125 11.6875H10.6875V13.3125H12.3125V11.6875ZM17.1875 8.4375H16.375C16.375 8.65755 16.2946 8.84798 16.1338 9.00879C15.973 9.1696 15.7826 9.25 15.5625 9.25H13.9375C13.709 9.25 13.5164 9.1696 13.3599 9.00879C13.2033 8.84798 13.125 8.65755 13.125 8.4375H5.8125C5.58398 8.4375 5.39144 8.3571 5.23486 8.19629C5.07829 8.03548 5 7.84294 5 7.61865C5 7.39437 5.07829 7.20394 5.23486 7.04736C5.39144 6.89079 5.58398 6.8125 5.8125 6.8125H13.125C13.125 6.58398 13.2033 6.39144 13.3599 6.23486C13.5164 6.07829 13.709 6 13.9375 6H15.5625C15.791 6 15.9836 6.07829 16.1401 6.23486C16.2967 6.39144 16.375 6.58398 16.375 6.8125H17.1875C17.416 6.8125 17.6086 6.89079 17.7651 7.04736C17.9217 7.20394 18 7.39437 18 7.61865C18 7.84294 17.9217 8.03548 17.7651 8.19629C17.6086 8.3571 17.416 8.4375 17.1875 8.4375ZM15.5625 6.8125H13.9375V8.4375H15.5625V6.8125ZM5.8125 16.5625H6.625C6.625 16.334 6.70329 16.1414 6.85986 15.9849C7.01644 15.8283 7.20898 15.75 7.4375 15.75H9.0625C9.28255 15.75 9.47298 15.8283 9.63379 15.9849C9.7946 16.1414 9.875 16.334 9.875 16.5625H17.1875C17.416 16.5625 17.6086 16.6408 17.7651 16.7974C17.9217 16.9539 18 17.1444 18 17.3687C18 17.5929 17.9196 17.7855 17.7588 17.9463C17.598 18.1071 17.4076 18.1875 17.1875 18.1875H9.875C9.875 18.416 9.7946 18.6086 9.63379 18.7651C9.47298 18.9217 9.28255 19 9.0625 19H7.4375C7.20898 19 7.01644 18.9196 6.85986 18.7588C6.70329 18.598 6.625 18.4076 6.625 18.1875H5.8125C5.58398 18.1875 5.39144 18.1071 5.23486 17.9463C5.07829 17.7855 5 17.5929 5 17.3687C5 17.1444 5.07829 16.9539 5.23486 16.7974C5.39144 16.6408 5.58398 16.5625 5.8125 16.5625ZM7.4375 18.1875H9.0625V16.5625H7.4375V18.1875Z" fill="#CCCCCC"/>
</svg>
