<svg width="24" height="24" viewBox="0 0 24 24" fill="none" xmlns="http://www.w3.org/2000/svg">
<path d="M13.6976 5.84887C13.7071 5.63296 13.4245 5.44524 13.0666 5.42958C12.7087 5.41392 12.4108 5.57626 12.4014 5.79217C12.3919 6.00808 12.6744 6.1958 13.0324 6.21146C13.3903 6.22712 13.6882 6.06478 13.6976 5.84887Z" fill="#CCCCCC"/>
<path d="M16.6061 16.5665C16.6061 16.5665 18.0665 17.1406 18.7555 16.6029C18.8073 16.1179 17.383 15.7594 17.383 15.7594L16.6061 16.5665ZM7.36054 15.6582C7.36054 15.6582 5.18179 18.9023 4.55959 18.3452C4.55959 18.3452 4.38342 17.7661 5.06946 16.5967C5.75591 15.4269 7.36054 15.6582 7.36054 15.6582Z" fill="#CCCCCC"/>
<path d="M12.4345 5.73828C12.4345 5.73828 8.89567 5.91653 6.74097 12.515C9.6297 11.2594 13.6988 12.745 13.6988 12.745C13.6988 12.745 16.9317 14.3957 17.3835 14.5975C17.8349 14.7994 18.756 15.2761 18.756 15.2761C18.756 15.2761 19.2074 12.9834 18.8824 11.2594C18.5574 9.53534 17.0042 5.81165 12.4345 5.73828Z" fill="#CCCCCC"/>
<path d="M5.63089 15.4997C4.87106 16.7607 4.29777 17.9126 4.55975 18.345C4.55975 18.345 4.4756 18.0295 4.88101 17.6681C5.25077 17.3385 6.04376 17.0372 7.55926 17.0372C9.85325 17.0372 12.9506 18.9017 14.241 19.3428C15.2255 19.6794 15.4328 19.4207 15.977 18.8246C16.5574 18.1887 17.5174 15.9627 17.5174 15.9627C17.5174 15.9627 14.4209 14.2603 12.5966 13.5891C10.7723 12.918 10.3756 12.9976 9.7977 13.0084C8.53091 13.032 7.59491 13.2865 6.74057 13.842C6.74057 13.842 6.12127 14.686 5.63089 15.4997Z" fill="#CCCCCC"/>
<path d="M16.9203 8.44046C16.6675 7.01325 15.2577 6.33633 15.2577 6.33633C14.4721 5.9703 13.5341 5.73609 12.4123 5.71827C12.4123 5.71827 7.35844 5.67474 6.74121 12.5144C6.74121 12.5144 7.79452 12.0522 10.0243 12.1857C13.0499 12.3673 15.9992 13.8923 16.6509 14.1804C16.9949 13.0284 17.2175 10.1189 16.9203 8.44046Z" fill="#CCCCCC"/>
</svg>
