<svg width="27" height="27" viewBox="0 0 27 27" fill="none" xmlns="http://www.w3.org/2000/svg">
<path d="M4.21875 4.21875V7.59375H5.0625V19.4062H4.21875V22.7812H7.59375V21.9375H19.4062V22.7812H22.7812V19.4062H21.9375V7.59375H22.7812V4.21875H19.4062V5.0625H7.59375V4.21875H4.21875ZM7.59375 6.75H19.4062V7.59375H20.25V19.4062H19.4062V20.25H7.59375V19.4062H6.75V7.59375H7.59375V6.75ZM8.4375 8.4375V15.1875H11.8125V18.5625H18.5625V11.8125H15.1875V8.4375H8.4375ZM10.125 10.125H13.5V13.5H10.125V10.125ZM15.1875 13.5H16.875V16.875H13.5V15.1875H15.1875V13.5Z" fill="#3776FF"/>
</svg>
