<svg width="16" height="16" viewBox="0 0 16 16" fill="none" xmlns="http://www.w3.org/2000/svg">
<path d="M9.405 1.05C8.992 -0.35 7.008 -0.35 6.595 1.05L6.495 1.39C6.43329 1.59959 6.32545 1.79272 6.17939 1.95521C6.03333 2.11771 5.85275 2.24544 5.6509 2.32906C5.44904 2.41268 5.23103 2.45006 5.01285 2.43846C4.79466 2.42685 4.58185 2.36656 4.39 2.262L4.08 2.092C2.797 1.394 1.394 2.797 2.093 4.079L2.262 4.39C2.708 5.21 2.285 6.231 1.39 6.495L1.05 6.595C-0.35 7.008 -0.35 8.992 1.05 9.405L1.39 9.505C1.59959 9.56671 1.79272 9.67455 1.95521 9.82061C2.11771 9.96667 2.24544 10.1472 2.32906 10.3491C2.41268 10.551 2.45006 10.769 2.43846 10.9872C2.42685 11.2053 2.36656 11.4182 2.262 11.61L2.092 11.92C1.394 13.203 2.797 14.606 4.079 13.907L4.39 13.738C4.58185 13.6334 4.79466 13.5731 5.01285 13.5615C5.23103 13.5499 5.44904 13.5873 5.6509 13.6709C5.85275 13.7546 6.03333 13.8823 6.17939 14.0448C6.32545 14.2073 6.43329 14.4004 6.495 14.61L6.595 14.95C7.008 16.35 8.992 16.35 9.405 14.95L9.505 14.61C9.56671 14.4004 9.67455 14.2073 9.82061 14.0448C9.96667 13.8823 10.1472 13.7546 10.3491 13.6709C10.551 13.5873 10.769 13.5499 10.9872 13.5615C11.2053 13.5731 11.4182 13.6334 11.61 13.738L11.92 13.908C13.203 14.606 14.606 13.203 13.907 11.921L13.738 11.61C13.6334 11.4182 13.5731 11.2053 13.5615 10.9872C13.5499 10.769 13.5873 10.551 13.6709 10.3491C13.7546 10.1472 13.8823 9.96667 14.0448 9.82061C14.2073 9.67455 14.4004 9.56671 14.61 9.505L14.95 9.405C16.35 8.992 16.35 7.008 14.95 6.595L14.61 6.495C14.4004 6.43329 14.2073 6.32545 14.0448 6.17939C13.8823 6.03333 13.7546 5.85275 13.6709 5.6509C13.5873 5.44904 13.5499 5.23103 13.5615 5.01285C13.5731 4.79466 13.6334 4.58185 13.738 4.39L13.908 4.08C14.606 2.797 13.203 1.394 11.921 2.093L11.61 2.262C11.4182 2.36656 11.2053 2.42685 10.9872 2.43846C10.769 2.45006 10.551 2.41268 10.3491 2.32906C10.1472 2.24544 9.96667 2.11771 9.82061 1.95521C9.67455 1.79272 9.56671 1.59959 9.505 1.39L9.405 1.05Z" fill="#FF3737"/>
<circle cx="8" cy="8" r="4" fill="#151719"/>
<path d="M9.85665 6.10624C9.9447 6.02242 10.0619 5.97608 10.1834 5.977C10.305 5.97792 10.4214 6.02603 10.5082 6.11117C10.5949 6.19631 10.6452 6.31183 10.6485 6.43335C10.6517 6.55487 10.6075 6.67288 10.5254 6.76249L8.03165 9.88124C7.98877 9.92743 7.93702 9.96449 7.87949 9.99022C7.82195 10.0159 7.75982 10.0298 7.69681 10.031C7.6338 10.0321 7.5712 10.0206 7.51275 9.99701C7.45431 9.97343 7.40121 9.93831 7.35665 9.89374L5.7029 8.23999C5.65685 8.19708 5.61991 8.14533 5.59429 8.08783C5.56867 8.03033 5.55489 7.96826 5.55378 7.90532C5.55267 7.84238 5.56425 7.77986 5.58783 7.72149C5.6114 7.66313 5.64649 7.6101 5.691 7.56559C5.73552 7.52108 5.78854 7.48599 5.84691 7.46241C5.90527 7.43884 5.96779 7.42726 6.03073 7.42837C6.09367 7.42948 6.15574 7.44326 6.21324 7.46888C6.27074 7.4945 6.32249 7.53144 6.3654 7.57749L7.67415 8.88562L9.84478 6.11999C9.84869 6.11518 9.85286 6.11059 9.85728 6.10624H9.85665Z" fill="white"/>
</svg>
