<svg width="24" height="24" viewBox="0 0 24 24" fill="none" xmlns="http://www.w3.org/2000/svg">
<path d="M19 19H9V17.7619C9 16.941 9.32924 16.1537 9.91529 15.5732C10.5013 14.9928 11.2962 14.6667 12.125 14.6667H15.875C16.7038 14.6667 17.4987 14.9928 18.0847 15.5732C18.6708 16.1537 19 16.941 19 17.7619V19ZM14 13.4286C13.5075 13.4286 13.0199 13.3325 12.5649 13.1458C12.11 12.9592 11.6966 12.6856 11.3483 12.3407C11.0001 11.9958 10.7239 11.5863 10.5355 11.1357C10.347 10.685 10.25 10.2021 10.25 9.71429C10.25 9.22652 10.347 8.74353 10.5355 8.29289C10.7239 7.84225 11.0001 7.43279 11.3483 7.08789C11.6966 6.74299 12.11 6.46939 12.5649 6.28273C13.0199 6.09607 13.5075 6 14 6C14.9946 6 15.9484 6.39133 16.6517 7.08789C17.3549 7.78445 17.75 8.7292 17.75 9.71429C17.75 10.6994 17.3549 11.6441 16.6517 12.3407C15.9484 13.0372 14.9946 13.4286 14 13.4286Z" fill="#CCCCCC"/>
<path fill-rule="evenodd" clip-rule="evenodd" d="M10.9308 6.11624C10.6292 6.03967 10.3167 6 10 6C9.50754 6 9.01991 6.09607 8.56494 6.28273C8.10997 6.46939 7.69657 6.74299 7.34835 7.08789C7.00013 7.43279 6.72391 7.84225 6.53545 8.29289C6.347 8.74353 6.25 9.22652 6.25 9.71429C6.25 10.2021 6.347 10.685 6.53545 11.1357C6.72391 11.5863 7.00013 11.9958 7.34835 12.3407C7.69657 12.6856 8.10997 12.9592 8.56494 13.1458C9.01991 13.3325 9.50754 13.4286 10 13.4286C10.3167 13.4286 10.6292 13.3889 10.9308 13.3123C10.8321 13.2293 10.7366 13.1422 10.6446 13.0512C10.2031 12.6138 9.85236 12.0941 9.61288 11.5215C9.37339 10.9488 9.25 10.3347 9.25 9.71429C9.25 9.09386 9.37339 8.47974 9.61288 7.90707C9.85236 7.33442 10.2031 6.81473 10.6446 6.37741C10.7366 6.28635 10.8321 6.19924 10.9308 6.11624ZM12 6.57234C12.2341 6.71851 12.4529 6.89101 12.6517 7.08789C13.3549 7.78445 13.75 8.7292 13.75 9.71429C13.75 10.6994 13.3549 11.6441 12.6517 12.3407C12.4529 12.5376 12.2341 12.7101 12 12.8562C11.7647 12.7093 11.546 12.5365 11.3483 12.3407C11.0001 11.9958 10.7239 11.5863 10.5355 11.1357C10.347 10.685 10.25 10.2021 10.25 9.71429C10.25 9.22652 10.347 8.74353 10.5355 8.29289C10.7239 7.84225 11.0001 7.43279 11.3483 7.08789C11.546 6.89211 11.7647 6.71931 12 6.57234ZM9.42398 14.6667H8.125C7.2962 14.6667 6.50134 14.9928 5.91529 15.5732C5.32924 16.1537 5 16.941 5 17.7619V19H8V17.7619C8 16.6727 8.43694 15.63 9.21158 14.8628C9.28027 14.7947 9.35113 14.7293 9.42398 14.6667ZM9 19H15V17.7619C15 16.941 14.6708 16.1537 14.0847 15.5732C13.5282 15.022 12.7834 14.7002 12 14.6691C11.2166 14.7002 10.4718 15.022 9.91529 15.5732C9.32924 16.1537 9 16.941 9 17.7619V19Z" fill="#CCCCCC"/>
</svg>
