<svg width="100" height="100" viewBox="0 0 100 100" fill="none" xmlns="http://www.w3.org/2000/svg">
<path fill-rule="evenodd" clip-rule="evenodd" d="M31.1539 25H72.6154C73.6151 25 74.5738 25.3971 75.2807 26.104C75.9875 26.8108 76.3846 27.7696 76.3846 28.7692V55.1538C76.3846 56.1535 75.9875 57.1122 75.2807 57.8191C74.5738 58.526 73.6151 58.9231 72.6154 58.9231H53.7693V66.4615H63.1923V70.2308H46.2308V66.4615H50V58.9231H46.2308V55.1538H72.6154V28.7692H31.1539V40.0769H27.3846V28.7692C27.3846 27.7696 27.7818 26.8108 28.4886 26.104C29.1955 25.3971 30.1542 25 31.1539 25ZM27.3846 74H38.6923C39.6919 74 40.6507 73.6029 41.3575 72.8961C42.0644 72.1892 42.4615 71.2305 42.4615 70.2308V47.6154C42.4615 46.6158 42.0644 45.657 41.3575 44.9502C40.6507 44.2433 39.6919 43.8462 38.6923 43.8462H27.3846C26.3849 43.8462 25.4262 44.2433 24.7193 44.9502C24.0125 45.657 23.6154 46.6158 23.6154 47.6154V70.2308C23.6154 71.2305 24.0125 72.1892 24.7193 72.8961C25.4262 73.6029 26.3849 74 27.3846 74ZM27.3846 70.2308V47.6154H38.6923V70.2308H27.3846Z" fill="url(#paint0_linear)"/>
<path d="M60.5 41.3099V41.9999C60.4991 43.6172 59.9754 45.1909 59.007 46.4863C58.0386 47.7816 56.6775 48.7293 55.1265 49.1878C53.5756 49.6464 51.9179 49.5913 50.4009 49.0308C48.8838 48.4703 47.5885 47.4345 46.7082 46.0777C45.8279 44.7209 45.4098 43.1159 45.5163 41.5021C45.6227 39.8883 46.2479 38.3521 47.2987 37.1227C48.3495 35.8933 49.7696 35.0364 51.3471 34.68C52.9247 34.3236 54.5752 34.4867 56.0525 35.1449" stroke="white" stroke-width="2" stroke-linecap="round" stroke-linejoin="round"/>
<path d="M60.5 36L53 43.5075L50.75 41.2575" stroke="white" stroke-width="2" stroke-linecap="round" stroke-linejoin="round"/>
<defs>
<linearGradient id="paint0_linear" x1="23.1694" y1="31.2779" x2="45.2459" y2="83.0173" gradientUnits="userSpaceOnUse">
<stop stop-color="#4D9CFF"/>
<stop offset="1" stop-color="#1769D4"/>
</linearGradient>
</defs>
</svg>
