<svg width="11" height="6" viewBox="0 0 11 6" fill="none" xmlns="http://www.w3.org/2000/svg">
<path d="M3.09375 0H7.90625C8.72676 0 9.51367 0.31607 10.0939 0.87868C10.6741 1.44129 11 2.20435 11 3C11 3.79565 10.6741 4.55871 10.0939 5.12132C9.51367 5.68393 8.72676 6 7.90625 6H3.09375C2.27324 6 1.48633 5.68393 0.906138 5.12132C0.325948 4.55871 0 3.79565 0 3C0 2.20435 0.325948 1.44129 0.906138 0.87868C1.48633 0.31607 2.27324 0 3.09375 0ZM3.09375 4.79167C3.45918 4.79167 3.81641 4.68659 4.12025 4.48972C4.4241 4.29285 4.66092 4.01303 4.80076 3.68564C4.94061 3.35826 4.9772 2.99801 4.9059 2.65046C4.83461 2.30291 4.65864 1.98367 4.40024 1.7331C4.14184 1.48253 3.81262 1.31189 3.45421 1.24276C3.0958 1.17363 2.7243 1.20911 2.38668 1.34472C2.04907 1.48032 1.7605 1.70997 1.55748 2.0046C1.35446 2.29924 1.24609 2.64564 1.24609 3C1.24575 3.23538 1.29331 3.46851 1.38605 3.68603C1.47878 3.90355 1.61486 4.1012 1.7865 4.26763C1.95814 4.43407 2.16196 4.56603 2.38628 4.65595C2.6106 4.74588 2.85102 4.792 3.09375 4.79167Z" fill="#F2F2F2"/>
</svg>
