<svg width="16" height="16" viewBox="0 0 16 16" fill="none" xmlns="http://www.w3.org/2000/svg">
<path fill-rule="evenodd" clip-rule="evenodd" d="M13.2782 13.4999C16.3157 10.4623 16.3157 5.53742 13.2782 2.49985C10.2406 -0.537712 5.31574 -0.537712 2.27817 2.49985C-0.759392 5.53742 -0.759392 10.4623 2.27817 13.4999C5.31574 16.5374 10.2406 16.5374 13.2782 13.4999ZM7.08042 9.5718V7.06734H5.504L7.79783 4.20005L10.0917 7.06734H8.51525V9.5718H7.08042ZM9.46748 6.76734H8.21533V6.76733H9.46747L9.46748 6.76734ZM7.3805 9.27179H8.21525V9.2718H7.38042V6.76734H6.12819L7.79783 4.68028L7.79787 4.68033L6.12827 6.76733H7.3805V9.27179ZM4.45846 10.524H11.137V10.524H4.45865V7.6021H3.62383V7.60215H4.45846V10.524ZM11.9718 7.60215H11.1372V7.6021H11.972V10.524C11.972 10.9048 11.7158 11.2268 11.3667 11.3267C11.7157 11.2268 11.9718 10.9048 11.9718 10.524V7.60215ZM10.8372 10.224V7.3021H12.272V10.524C12.272 11.1501 11.7633 11.6588 11.1372 11.6588H4.45865C3.83256 11.6588 3.32383 11.1501 3.32383 10.524V7.3021H4.75865V10.224H10.8372Z" fill="white"/>
</svg>
