<svg width="128" height="128" viewBox="0 0 128 128" fill="none" xmlns="http://www.w3.org/2000/svg">
<path d="M112 35.5C112 30.275 107.68 26 102.4 26H25.6C20.32 26 16 30.275 16 35.5V92.5C16 97.725 20.32 102 25.6 102H102.4C107.68 102 112 97.725 112 92.5V35.5ZM102.4 35.5L64 59.25L25.6 35.5H102.4ZM102.4 92.5H25.6V45L64 68.75L102.4 45V92.5Z" fill="#2173DC"/>
<path d="M36 80H92V84H36V80ZM38.3 71.9L40 68.94L41.7 71.9L44.3 70.4L42.6 67.44H46V64.44H42.6L44.3 61.5L41.7 60L40 62.94L38.3 60L35.7 61.5L37.4 64.44H34V67.44H37.4L35.7 70.4L38.3 71.9ZM51.7 70.4L54.3 71.9L56 68.94L57.7 71.9L60.3 70.4L58.6 67.44H62V64.44H58.6L60.3 61.5L57.7 60L56 62.94L54.3 60L51.7 61.5L53.4 64.44H50V67.44H53.4L51.7 70.4ZM78 64.44H74.6L76.3 61.5L73.7 60L72 62.94L70.3 60L67.7 61.5L69.4 64.44H66V67.44H69.4L67.7 70.4L70.3 71.9L72 68.94L73.7 71.9L76.3 70.4L74.6 67.44H78V64.44Z" fill="white"/>
<path d="M90.6 64.44H94V67.44H90.6L92.3 70.4L89.7 71.9L88 68.94L86.3 71.9L83.7 70.4L85.4 67.44H82V64.44H85.4L83.7 61.5L86.3 60L88 62.94L89.7 60L92.3 61.5L90.6 64.44Z" fill="white"/>
</svg>
